<svg xmlns="http://www.w3.org/2000/svg" width="1909" height="1428"><path d="M1140.522 866.105c.071-8.35 6.915-15.232 15.078-15.157 8.178.074 14.855 7.027 14.829 15.44-.027 8.3-6.978 15.271-15.082 15.128-8.287-.145-14.895-7.016-14.825-15.41zm53.773 1.1c.436-21.309-16.862-39.211-38.09-39.422-21.576-.214-39.226 16.725-39.591 37.995-.36 21.078 17.183 38.764 38.634 38.952 20.976.183 38.62-16.774 39.047-37.525zm675.656 204.285c-8.38.173-15.35-6.406-15.5-14.633-.151-8.234 6.53-15.05 14.926-15.228 8.374-.178 15.41 6.415 15.579 14.593.164 8.087-6.723 15.095-15.005 15.267zm-.159-53.806c-21.318-.088-38.668 17.403-38.62 38.938.046 21.074 16.95 38.382 37.853 38.76 21.22.385 38.963-17.068 39.099-38.46.138-21.486-17.117-39.15-38.332-39.238zm-802.947 181.189c-8.016.136-15.415-6.978-15.598-14.994-.182-7.974 6.943-15.358 14.991-15.536 8.093-.178 15.294 6.761 15.522 14.953.221 7.995-6.907 15.441-14.915 15.577zm-.708 23.208c21.194.208 38.485-16.4 38.888-37.356.423-21.868-16.091-39.271-37.597-39.625-21.726-.356-39.11 16.363-39.365 37.86-.254 21.725 16.467 38.907 38.074 39.121zm677.753-381.087h-24.381v-23.441h24.082v-24.435h22.762l1.177 23.614 23.449 1.138v22.83h-23.792v24.702h-23.298zm-374 185h-24.381v-23.441h24.082v-24.435h22.762l1.177 23.614 23.449 1.138v22.83h-23.792v24.702h-23.298zm494.1 328.611v24.702h24.233v23.7h-24.035v24.588h-23.032l-1.383-24.089h-24.633c.79-8.507-1.09-18.286 2.882-22.366 3.778-3.877 13.674-1.792 22.422-2.445 0-5.445.285-10.75-.072-16.014-.421-6.215 1.975-8.71 8.255-8.158 4.665.411 9.397.082 15.362.082zm-249.246-264.087c.262 8.426-6.84 15.977-15.291 16.262-8.286.277-15.906-6.926-16.264-15.37-.346-8.263 6.968-15.994 15.347-16.22 8.456-.23 15.946 6.855 16.208 15.328zm24.299.142c-.18-21.946-18.454-40.019-40.35-39.902-21.58.115-40.32 19.107-39.96 40.495.372 21.795 19.055 40.198 40.551 39.946 21.88-.258 39.937-18.67 39.759-40.54zm-165.969 263.648c-.198 8.223-7.13 15.187-15.323 15.395-8.722.222-15.85-6.773-15.906-15.605-.053-8.747 7.073-15.994 15.669-15.93 8.5.06 15.764 7.594 15.56 16.14zm-15.22 39.895c21.832-.366 39.965-18.945 39.711-40.689-.254-21.7-19.082-40.12-40.642-39.754-22.12.377-39.627 18.422-39.456 40.678.166 22.015 18.562 40.128 40.387 39.765zM150.951 278.49c-8.38.173-15.35-6.406-15.5-14.633-.151-8.234 6.53-15.05 14.926-15.228 8.374-.178 15.41 6.415 15.579 14.593.164 8.087-6.723 15.095-15.005 15.267zm-.159-53.806c-21.318-.088-38.668 17.403-38.62 38.938.046 21.074 16.95 38.382 37.853 38.76 21.22.385 38.963-17.068 39.099-38.46.138-21.486-17.117-39.15-38.332-39.238zM24.89 47.994H.508V24.553H24.59V.118h22.762l1.177 23.614 23.449 1.138V47.7H48.187v24.702H24.89zm120.1 513.611v24.702h24.233v23.7h-24.035v24.588h-23.032l-1.383-24.089H96.14c.79-8.507-1.09-18.286 2.882-22.366 3.778-3.877 13.674-1.792 22.422-2.444 0-5.446.285-10.752-.072-16.015-.421-6.215 1.975-8.71 8.255-8.158 4.665.411 9.397.082 15.362.082z" opacity=".1"/></svg>