<svg xmlns="http://www.w3.org/2000/svg" width="16" height="16"><path fill="#c69ccc" d="M12.267 2.756c.533 0 .977.444.977.977a.986.986 0 01-.977.978.986.986 0 01-.978-.978c0-.533.444-.977.978-.977M8 10.666c1.511 0 2.667-1.155 2.667-2.666S9.51 5.333 8 5.333 5.333 6.49 5.333 8 6.49 10.667 8 10.667M8 3.91A4.078 4.078 0 0112.089 8 4.078 4.078 0 018 12.089 4.078 4.078 0 013.911 8C3.911 5.689 5.69 3.911 8 3.911M8 0c2.133 0 2.489 0 3.289.089.889 0 1.422.178 1.955.355a3.48 3.48 0 011.423.89c.444.444.71.888.889 1.422.177.533.355 1.066.355 1.955C16 5.511 16 5.867 16 8s-.089 2.4-.089 3.289c0 .889-.178 1.422-.355 1.955a3.48 3.48 0 01-.89 1.423 3.48 3.48 0 01-1.422.889c-.533.177-1.066.355-1.955.355C10.489 16 10.133 16 8 16s-2.489 0-3.289-.089c-.889 0-1.422-.178-1.955-.355a3.48 3.48 0 01-1.423-.89 3.48 3.48 0 01-.889-1.422C.267 12.711.09 12.178.09 11.29 0 10.489 0 10.133 0 8s0-2.489.089-3.289c0-.889.089-1.422.355-1.955a3.48 3.48 0 01.89-1.423A3.48 3.48 0 012.755.444C3.289.267 3.822.09 4.71.09 5.511 0 5.867 0 8 0m0 1.422c-2.133 0-2.4 0-3.2.09-.8 0-1.244.177-1.511.266-.356.089-.622.266-.889.622a3.193 3.193 0 00-.622.889C1.688 3.556 1.51 4 1.51 4.8c-.089.8-.089 1.067-.089 3.2s.09 2.4.09 3.2c0 .8.177 1.244.266 1.511.178.356.355.622.622.889s.533.444.889.622c.267.09.711.267 1.511.267.8.089 1.067.089 3.2.089s2.4-.09 3.2-.09c.8 0 1.244-.177 1.511-.266.356-.178.622-.355.889-.622s.444-.533.622-.889c.09-.267.267-.711.267-1.511.089-.8.089-1.067.089-3.2s-.09-2.4-.09-3.2c0-.8-.177-1.244-.266-1.511A3.192 3.192 0 0013.6 2.4a3.193 3.193 0 00-.889-.622c-.267-.09-.711-.267-1.511-.267-.8-.089-1.067-.089-3.2-.089"/></svg>