<svg xmlns="http://www.w3.org/2000/svg" width="565" height="520"><g opacity=".1"><path d="M381.552 97.97zm0 0c-10.651 0-19.751-.027-28.85.006-33.935.129-55.146 14.39-68.252 45.843-.3.725-.744 1.39-1.48 2.737-4.647-13.612-11.662-24.936-22.518-33.63-12.264-9.823-26.286-14.727-41.941-14.928-9.51-.123-19.021-.024-28.67-.665C200.16 88.926 211.519 82.53 224.042 79c46.347-13.057 92.31-13.767 137.164 6.294 5.934 2.654 11.365 6.442 17 9.753.779.459 1.391 1.2 3.346 2.925zm46.62 393.627c-86.83-59.417-82.255-192.561 8.356-245.975 1.556-.917 3.175-1.728 5.398-2.931V497.52c-5.29-2.23-10.012-3.36-13.754-5.923zm-25.696 3.754c-46.986 2.487-92.948.082-135.934-20.55-74.163-35.6-120.205-93.541-135.108-174.702-6.754-36.778-6.04-74.211-1.165-111.22 3.529-26.795 16.26-49.948 34.386-69.948 1.62-1.787 4.859-2.912 7.37-2.955 15.138-.264 30.283-.148 45.424-.112 25.922.064 45.565 16.892 49.76 42.575.292 1.79.64 3.569 1.044 5.798h29.867c.458-2.532.943-5.09 1.38-7.658 3.877-22.842 23.338-40.136 46.414-40.621 17.796-.375 35.604-.2 53.404.017 2.089.025 4.734 1.349 6.145 2.938 24.975 28.102 37.325 60.973 37.067 98.63-.027 3.99-1.718 5.61-4.942 7.287-41.033 21.333-69.54 53.819-82.348 98.248-18.342 63.625-3.174 119.473 42.946 166.936 1.281 1.32 2.626 2.576 3.892 3.908.225.239.208.707.398 1.429zM135.805 116.014c-2.11 3.288-3.607 5.634-5.12 7.973-10.646 16.465-18.664 34.15-22.437 53.383-7.764 39.574-6.699 79.591-1.51 119.16 7.969 60.796 35.687 112.189 80.715 153.81 45.355 41.92 99.096 65.53 160.856 68.417 37.787 1.766 75.706.732 113.567.912 1.362.006 2.728-.442 4.214-.699.123-1.703.313-3.112.313-4.52-.001-100.702.222-201.406-.17-302.107-.126-32.424-9.718-62.405-27.68-89.563-1.292-1.954-2.451-3.996-4.271-6.98h49.096V97.974c-19.802 0-39.212-.112-58.616.089-4.214.043-7.2-1.192-10.237-4.14-19.726-19.154-42.88-32.448-69.238-40.4-22.903-6.907-46.361-7.007-69.92-6.928-46.738.156-87.202 15.773-121.076 48.233-1.924 1.842-5.322 2.973-8.053 3.01-18.827.253-37.659.126-56.49.123h-6.672v18.054h52.729zM81.736 57.28c-5.322-.094-9.565-4.506-9.52-9.896.046-5.363 4.44-9.782 9.682-9.734 5.252.048 9.54 4.513 9.522 9.916-.017 5.329-4.48 9.806-9.684 9.713zm25.01-9.19c.28-13.683-10.828-25.18-24.46-25.314-13.854-.138-25.188 10.739-25.422 24.398-.231 13.535 11.034 24.892 24.808 25.012 13.47.118 24.8-10.771 25.074-24.096zm433.866 131.179c-5.38.112-9.856-4.113-9.953-9.396-.097-5.287 4.193-9.664 9.584-9.779 5.378-.114 9.896 4.12 10.004 9.371.106 5.193-4.317 9.693-9.635 9.804zm24.512-9.354c.089-13.798-10.99-25.14-24.614-25.197-13.69-.056-24.83 11.176-24.8 25.004.03 13.532 10.884 24.646 24.307 24.89 13.626.247 25.02-10.96 25.107-24.697zm-530.642 81.15c.143 5.133-4.435 9.915-9.577 10.002-5.148.087-9.898-4.48-10.016-9.628-.117-5.12 4.458-9.862 9.626-9.976 5.197-.115 9.821 4.341 9.967 9.602zm14.94.917c.271-14.042-10.333-25.217-24.143-25.445C11.33 226.31.165 237.045.002 250.848-.162 264.8 10.575 275.832 24.45 275.97c13.61.134 24.713-10.53 24.972-23.988zM459.663 31.259h-15.656V16.206h15.464V.516h14.617l.755 15.163 15.058.73v14.66h-15.278v15.863h-14.96zm77.121 329.811v15.862h15.56v15.218h-15.433v15.789h-14.79c-.28-4.873-.563-9.83-.888-15.468h-15.818c.508-5.463-.7-11.743 1.851-14.363 2.426-2.49 8.78-1.15 14.398-1.57 0-3.496.183-6.903-.046-10.283-.27-3.99 1.269-5.593 5.3-5.238 2.996.264 6.035.052 9.866.052zM49.482 433.383h15.035l.778-15.656h14.321v15.316h15.693v15.462h-15.2v15.562H64.943c0-3.58-.204-6.99.052-10.364.312-4.104-1.434-5.456-5.35-5.151-3.208.249-6.451.05-10.162.05z"/><path d="M320.546 191.891c-.045-25.28 20.722-46.17 45.964-46.238 25.186-.067 46.04 20.684 46.23 46.006.19 25.08-20.896 46.261-45.988 46.199-25.404-.064-46.162-20.715-46.206-45.967zm46.41 61.635c33.676-.079 61.768-28.475 61.432-62.097-.34-33.97-28.347-61.669-62.105-61.422-33.891.248-61.564 28.234-61.405 62.098.158 33.818 28.136 61.5 62.078 61.42zm-163.48-15.647c-25.18-.13-45.998-21.206-45.81-46.378.186-25.241 21.277-46.097 46.363-45.85 25.424.253 45.75 20.91 45.652 46.396-.097 25.397-20.83 45.963-46.205 45.832zm-61.327-45.727c.626 34.637 28.667 62.116 62.617 61.36 34.602-.77 61.126-28.8 60.543-63.98-.543-32.815-29.192-60.08-62.551-59.531-33.654.554-61.212 28.814-60.61 62.15zm120.136 60.825l20.502-19.371 20.57 19.349-20.501 35.104a580871.9 580871.9 0 00-20.571-35.082zm20.557 68.366c13.79-23.518 26.844-45.945 40.116-68.242 1.992-3.348.129-4.725-1.836-6.572-11.63-10.925-23.224-21.888-34.859-32.807-1.126-1.056-2.443-1.908-3.772-2.933-13.547 12.782-26.787 25.267-40.007 37.773-.418.394-.638.998-1.178 1.875l41.536 70.906z"/><path d="M366.914 201.93c-5.32.179-10.214-4.447-10.443-9.87-.223-5.305 4.474-10.27 9.855-10.414 5.43-.148 10.239 4.401 10.407 9.842.169 5.41-4.392 10.26-9.82 10.442zm-.488-35.973c-13.858.073-25.891 12.27-25.66 26.003.239 13.995 12.236 25.813 26.04 25.65 14.05-.165 25.645-11.988 25.53-26.03-.115-14.093-11.85-25.698-25.91-25.623zM203.85 181.63c5.458.04 10.122 4.878 9.991 10.366-.126 5.28-4.578 9.751-9.84 9.885-5.6.143-10.177-4.349-10.213-10.02-.034-5.617 4.542-10.27 10.062-10.23zm.218 35.983c14.019-.234 25.663-12.165 25.5-26.127-.163-13.935-12.254-25.763-26.098-25.528-14.204.242-25.446 11.83-25.336 26.121.106 14.137 11.92 25.768 25.934 25.534z"/></g></svg>