<svg xmlns="http://www.w3.org/2000/svg" width="851" height="782"><g opacity=".1" fill="#fff"><path d="M276.26 147.176zm5.034-4.4c8.48-4.984 16.654-10.684 25.583-14.678 67.502-30.19 136.672-29.122 206.418-9.473 18.848 5.312 35.939 14.94 51.47 27.592-14.52.965-28.835.815-43.145 1-23.56.303-44.66 7.683-63.118 22.464-16.337 13.084-26.893 30.126-33.887 50.61-1.107-2.027-1.775-3.027-2.227-4.117-19.724-47.336-51.644-68.796-102.713-68.99-13.693-.05-27.387-.008-43.415-.008 2.94-2.597 3.863-3.711 5.034-4.4zm-95.892 605.682V364.965c3.345 1.812 5.781 3.032 8.123 4.412 136.362 80.382 143.245 280.75 12.576 370.168-5.632 3.856-12.737 5.558-20.7 8.913zm59.368-3.264zm.599-2.15c1.905-2.005 3.93-3.896 5.857-5.881 69.406-71.428 92.233-155.473 64.63-251.224-19.274-66.86-62.175-115.749-123.926-147.852-4.852-2.523-7.397-4.96-7.437-10.968-.389-56.67 18.198-106.136 55.782-148.427 2.123-2.392 6.105-4.384 9.249-4.421 26.785-.326 53.586-.59 80.366-.026 34.728.73 64.015 26.756 69.85 61.13.656 3.864 1.386 7.714 2.076 11.525h44.947c.606-3.354 1.131-6.033 1.571-8.726 6.312-38.65 35.874-63.974 74.883-64.07 22.786-.055 45.578-.229 68.358.168 3.78.065 8.654 1.758 11.092 4.447 27.28 30.098 46.437 64.941 51.747 105.264 7.336 55.695 8.412 112.028-1.752 167.376-22.427 122.139-91.717 209.335-203.324 262.909-64.69 31.05-133.859 34.669-204.568 30.926.286-1.087.26-1.791.599-2.15zM646.084 174.33h79.352v-27.17c-3.46 0-6.75-.002-10.042 0-28.338.005-56.679.195-85.011-.185-4.11-.056-9.224-1.758-12.118-4.53-50.978-48.85-111.871-72.351-182.207-72.586-35.455-.118-70.757.031-105.223 10.426-39.667 11.966-74.511 31.973-104.197 60.797-4.571 4.438-9.064 6.296-15.406 6.23-29.201-.3-58.41-.132-88.21-.132v26.828h73.884c-2.74 4.49-4.484 7.563-6.429 10.504-27.03 40.87-41.465 85.988-41.655 134.783-.59 151.546-.253 303.095-.255 454.642 0 2.118.286 4.238.471 6.802 2.236.386 4.292 1.06 6.342 1.052 56.976-.272 114.04 1.284 170.906-1.374 92.943-4.345 173.818-39.874 242.072-102.96 67.763-62.636 109.476-139.977 121.47-231.469 7.807-59.547 9.41-119.769-2.273-179.324-5.678-28.943-17.744-55.558-33.767-80.337-2.276-3.52-4.529-7.05-7.704-11.997zm81.368-88.39c-7.83.138-14.548-6.6-14.574-14.619-.025-8.13 6.427-14.85 14.33-14.921 7.89-.073 14.502 6.578 14.57 14.647.069 8.113-6.317 14.752-14.326 14.892zm.096 22.432c20.73-.18 37.682-17.272 37.335-37.64-.353-20.556-17.41-36.924-38.259-36.717-20.514.203-37.23 17.503-36.809 38.095.412 20.053 17.463 36.44 37.733 36.262zM22.39 254.768c.162-7.903 6.962-14.274 15.054-14.102 8.114.172 14.57 6.76 14.424 14.716-.146 7.95-6.88 14.308-14.979 14.14-8.003-.167-14.658-6.939-14.5-14.754zM0 255.445c.132 20.672 17.279 37.537 37.784 37.166 20.2-.366 36.536-17.091 36.58-37.456.046-20.81-16.72-37.713-37.321-37.628-20.502.085-37.175 17.154-37.042 37.918zm798.565 122.122c.22-7.916 7.178-14.622 14.999-14.45 7.777.172 14.662 7.308 14.487 15.014-.178 7.746-7.327 14.62-15.073 14.489-7.74-.131-14.628-7.327-14.413-15.053zm15.097 37.48c20.88-.207 37.038-16.81 36.792-37.805-.246-20.773-17.045-36.93-38.04-36.586-20.782.342-36.74 17.16-36.332 38.292.39 20.252 17.098 36.3 37.58 36.1zM158.71 46.78h23.56V24.129H159V.516h-21.997l-1.137 22.819-22.66 1.1v22.061h22.991v23.871h22.514zM42.65 543.114v23.87H19.234v22.903H42.46v23.76h22.257l1.336-23.278h23.805c-.763-8.22 1.053-17.671-2.786-21.614-3.65-3.746-13.213-1.732-21.667-2.362 0-5.262-.276-10.39.07-15.476.406-6.005-1.91-8.417-7.978-7.883-4.507.397-9.08.08-14.845.08zm733.341 108.825h-22.625l-1.172-23.56h-21.551v23.048h-23.616v23.268H729.9v23.42h22.826c0-5.388.307-10.52-.08-15.598-.469-6.175 2.16-8.21 8.052-7.751 4.828.375 9.71.075 15.293.075z"/><path d="M368.067 288.517c-.066 38.001-31.304 69.079-69.535 69.175-37.761.094-69.493-31.782-69.208-69.524.286-38.107 31.669-69.336 69.572-69.235 37.987.102 69.238 31.54 69.172 69.584zm23.58.322c.238-50.962-41.407-93.078-92.409-93.451-50.803-.372-92.95 41.311-93.462 92.434-.506 50.598 41.77 93.33 92.45 93.45 51.077.117 93.182-41.54 93.42-92.434zm83.065-.087c-.146-38.355 30.441-69.442 68.702-69.82 37.751-.374 69.49 31.012 69.772 68.997.283 37.881-31.048 69.599-68.94 69.795-38.187.197-69.388-30.753-69.534-68.972zm161.825.157c.908-50.17-40.565-92.697-91.21-93.53-50.203-.827-93.316 40.204-94.133 89.587-.878 52.942 39.038 95.124 91.11 96.285 51.092 1.137 93.29-40.216 94.233-92.342zm-180.793 91.536l-30.957 52.795c-10.894-18.653-20.746-35.52-30.852-52.828l30.955-29.119 30.854 29.152zm31.571-3.822c-.813-1.32-1.144-2.23-1.772-2.823-19.896-18.82-39.82-37.608-60.207-56.843-2 1.542-3.982 2.824-5.677 4.414-17.509 16.431-34.957 32.93-52.459 49.37-2.957 2.78-5.76 4.852-2.763 9.89 19.973 33.555 39.619 67.305 60.37 102.699 21.285-36.336 41.94-71.599 62.508-106.707z"/><path d="M283.51 287.91c.254-8.187 7.492-15.034 15.663-14.812 8.098.218 15.166 7.69 14.831 15.674-.346 8.16-7.71 15.121-15.716 14.853-8.168-.275-15.03-7.572-14.778-15.714zm-23.48.137c-.172 21.134 17.278 38.926 38.42 39.176 20.774.244 38.828-17.541 39.187-38.603.349-20.668-17.76-39.021-38.615-39.132-21.16-.113-38.819 17.352-38.992 38.56zm283.653-14.971c8.307-.06 15.194 6.942 15.142 15.395-.054 8.535-6.942 15.295-15.37 15.08-7.919-.201-14.617-6.931-14.808-14.877-.198-8.258 6.822-15.539 15.036-15.598zm38.7 15.724c.165-21.507-16.753-38.946-38.129-39.31-20.834-.353-39.029 17.446-39.274 38.417-.246 21.012 17.278 38.966 38.374 39.32 21.092.35 38.869-17.153 39.03-38.427z"/></g></svg>